# xmcd
#
# Track frame offsets: 
#        150
#        29415
#        51875
#        71253
#        89343
#        109800
#        135308
#        156778
#        176828
#        197680
#
# Disc length: 2929 seconds
#
# Revision: 0
# Processed by: cddbd v1.5.2PL0 Copyright (c) Steve Scherf et al.
# Submitted via: ExactAudioCopy v1.0b3
#
DISCID=820b6f0a
DTITLE=Tuan Vu, My Huyen - Co Hang Xom
DYEAR=1992
DGENRE=
TTITLE0=Tuan Vu - Doi nga chia ly
TTITLE1=My Huyen - Giac ngu co don
TTITLE2=Tuan Vu - Co hang xom
TTITLE3=My Huyen - Tinh van chua yen
TTITLE4=Tuan Vu - La thu cuoi cung
TTITLE5=Tuan Vu - Mua dem ngoai o
TTITLE6=My Huyen - Tinh doi
TTITLE7=Tuan Vu - Dem buon tinh le
TTITLE8=My Huyen - Nho nhau hoai
TTITLE9=Tuan Vu - Nghen ngao
EXTD=
EXTT0=
EXTT1=
EXTT2=
EXTT3=
EXTT4=
EXTT5=
EXTT6=
EXTT7=
EXTT8=
EXTT9=
PLAYORDER=
